<?xml version="1.0" standalone="no"?>
<!DOCTYPE svg PUBLIC "-//W3C//DTD SVG 20010904//EN"
 "http://www.w3.org/TR/2001/REC-SVG-20010904/DTD/svg10.dtd">
<svg version="1.0" xmlns="http://www.w3.org/2000/svg"
 width="1888.000000pt" height="2373.000000pt" viewBox="0 0 1888.000000 2373.000000"
 preserveAspectRatio="xMidYMid meet">

<g transform="translate(0.000000,2373.000000) scale(0.100000,-0.100000)"
fill="#000000" stroke="none">
<path d="M925 23633 c12 -48 125 -471 250 -940 l227 -852 -100 -463 c-55 -255
-108 -501 -118 -548 l-18 -85 -186 -260 c-102 -143 -190 -266 -194 -273 -5 -8
26 -101 79 -235 l86 -222 -116 -535 c-371 -1714 -736 -3423 -732 -3427 3 -2
252 74 554 171 641 204 692 220 699 213 3 -3 -15 -95 -40 -204 -42 -179 -1258
-7090 -1286 -7306 -49 -381 2 -845 140 -1282 389 -1226 1548 -2645 3300 -4040
1219 -971 2569 -1834 3940 -2519 723 -361 1273 -588 1832 -756 l200 -60 151
44 c611 181 1258 449 2022 840 1343 687 2644 1526 3817 2463 883 704 1642
1443 2205 2143 347 432 623 857 828 1275 225 457 344 845 396 1280 17 147 15
467 -4 610 -31 224 -1247 7149 -1278 7278 -17 70 -30 129 -28 131 2 1 222 -66
489 -149 267 -84 486 -152 487 -151 0 0 -125 447 -278 991 l-280 990 -250
1100 c-137 605 -268 1174 -289 1265 -22 91 -123 534 -225 985 -243 1078 -586
2568 -594 2577 -3 3 -247 -4 -541 -17 -1624 -72 -3081 -112 -4930 -136 -998
-13 -4135 -7 -4970 10 -1492 30 -2554 61 -3665 106 -497 21 -1409 63 -1517 70
l-87 6 24 -88z m1925 -1083 c234 -17 440 -34 458 -38 33 -7 33 -7 121 -247
116 -319 224 -596 232 -593 4 2 142 179 307 393 l301 391 38 -3 c21 -2 177
-10 347 -18 171 -9 312 -17 314 -20 2 -2 -35 -282 -82 -622 -48 -340 -106
-762 -130 -938 l-44 -320 49 -87 c27 -49 49 -91 49 -95 0 -5 -34 -51 -75 -103
-41 -52 -75 -99 -75 -104 0 -4 -31 -234 -70 -510 -38 -275 -101 -737 -140
-1025 -39 -289 -72 -526 -74 -528 -4 -5 -830 -171 -834 -168 -1 1 33 227 77
501 212 1320 260 1621 262 1644 2 15 -16 62 -44 118 l-48 92 81 105 82 106 59
372 c33 205 58 378 57 386 -2 8 -142 -168 -313 -392 -170 -223 -312 -404 -316
-401 -7 4 -233 510 -301 676 -23 54 -44 95 -48 91 -3 -4 -41 -193 -84 -420
l-78 -412 46 -96 46 -97 -80 -104 c-44 -57 -85 -114 -90 -126 -5 -13 -62 -295
-125 -628 -187 -978 -327 -1705 -328 -1706 -1 -1 -58 -18 -127 -38 -69 -20
-264 -80 -433 -133 -169 -52 -310 -93 -312 -91 -3 3 6 56 20 119 187 862 505
2347 505 2361 0 10 -16 57 -35 105 -19 48 -35 93 -35 101 0 8 40 69 88 135
l89 122 112 525 c61 289 149 694 195 900 l82 375 -59 5 -60 5 -58 215 c-32
118 -61 226 -64 239 -6 24 -6 24 57 18 35 -3 254 -20 488 -37z m12408 -143
c97 -73 183 -137 190 -141 9 -5 73 30 183 99 94 59 172 105 174 103 8 -9 348
-1509 342 -1514 -4 -4 -740 46 -746 51 -2 2 -43 198 -92 436 -49 237 -90 433
-91 434 -2 2 -164 1 -360 -2 -357 -6 -358 -6 -353 -27 3 -12 37 -196 75 -410
56 -305 75 -396 92 -420 12 -17 49 -66 81 -109 l59 -79 -42 -99 -43 -99 17
-98 c10 -53 20 -100 24 -103 4 -3 111 -16 237 -29 127 -12 298 -30 381 -39
l151 -17 218 -184 c121 -102 332 -282 469 -400 l250 -215 168 -735 c92 -404
175 -774 186 -822 l19 -86 -201 -115 c-257 -148 -515 -287 -531 -287 -7 0
-122 32 -256 70 -134 39 -327 93 -429 121 -177 49 -187 53 -240 98 -30 26
-126 107 -214 181 l-158 133 -217 -31 c-118 -17 -217 -29 -219 -27 -2 2 -28
158 -57 347 -30 188 -72 462 -95 608 -23 146 -44 275 -47 288 -7 29 -16 29
282 -17 422 -67 517 -84 521 -95 2 -6 37 -191 77 -411 l72 -400 40 -12 c82
-23 796 -195 800 -191 2 1 -30 163 -70 358 -40 195 -110 538 -155 761 l-83
406 -276 42 c-152 22 -330 49 -396 58 l-120 16 -185 147 c-181 143 -401 314
-590 459 -52 40 -98 78 -101 85 -3 6 -12 51 -19 101 -12 85 -15 93 -64 155
-29 36 -64 81 -79 102 l-28 36 48 96 47 95 -61 387 -61 388 227 235 c125 130
261 272 302 316 46 50 83 81 99 84 14 2 167 13 340 26 173 12 319 23 323 24 4
0 87 -59 185 -132z m-9113 -27 c160 -5 562 -14 895 -20 333 -7 665 -15 738
-18 l134 -7 -188 -252 -188 -252 -601 6 -601 6 -52 -594 c-29 -327 -54 -604
-56 -616 -4 -28 -52 -27 456 -11 219 6 401 9 404 5 3 -3 -85 -123 -197 -265
l-202 -260 -151 -7 c-83 -4 -198 -10 -256 -14 l-105 -6 -7 -85 c-4 -47 -29
-320 -54 -608 -26 -287 -44 -525 -41 -529 4 -3 168 6 364 21 197 14 471 33
608 41 138 8 271 16 297 18 l47 4 178 -231 c98 -126 183 -237 190 -246 11 -15
-14 -18 -265 -34 -675 -42 -1393 -107 -2052 -185 -129 -16 -236 -28 -237 -27
-1 1 29 276 67 611 38 336 89 785 112 999 l44 388 -52 87 -52 86 31 42 c18 23
51 66 74 95 l42 54 41 374 c22 206 59 524 80 707 22 182 40 341 40 352 0 19
-6 21 -57 21 l-58 0 -92 179 c-51 98 -93 182 -93 186 0 8 204 4 815 -15z
m6542 -101 l175 -121 126 58 c70 31 153 70 185 86 42 21 59 25 62 16 7 -19
177 -1220 173 -1222 -2 -1 -166 3 -366 9 -260 7 -365 14 -370 22 -4 7 -25 162
-45 345 -21 183 -40 343 -42 355 l-5 21 -357 -5 c-197 -3 -358 -6 -359 -7 -1
0 3 -39 7 -86 5 -47 31 -325 58 -617 l50 -533 71 -90 72 -90 -55 -88 -55 -87
28 -305 c16 -168 45 -485 66 -705 20 -220 37 -400 38 -401 3 -3 797 -89 799
-87 2 1 -16 163 -39 360 -23 197 -41 360 -38 362 2 2 52 -1 111 -8 257 -28
668 -75 671 -77 4 -2 112 -757 109 -760 -5 -5 -285 -167 -503 -292 -248 -142
-245 -141 -359 -122 -33 5 -204 28 -379 50 -176 23 -325 44 -330 48 -6 3 -132
92 -281 197 -148 105 -335 237 -415 292 l-146 102 -22 328 c-12 180 -34 492
-48 692 l-25 364 -56 71 c-31 39 -62 78 -69 86 -12 14 -5 29 43 100 l57 85
-28 410 c-15 225 -34 498 -42 605 l-14 195 32 25 c74 58 544 434 590 472 l49
42 337 11 c185 7 343 13 351 13 7 1 92 -52 188 -119z m-2404 -186 c199 -135
365 -249 370 -253 8 -7 28 -314 52 -795 8 -176 17 -339 19 -363 l4 -43 -179
-121 c-99 -67 -179 -125 -179 -128 0 -3 87 -64 193 -135 l192 -130 3 -65 c2
-36 20 -393 42 -795 21 -401 37 -731 35 -733 -1 -2 -74 20 -161 48 -171 55
-534 157 -597 167 -21 3 -40 11 -42 17 -2 6 -13 317 -25 690 -11 374 -22 682
-25 684 -2 3 -174 7 -381 10 l-377 5 4 -658 4 -658 -205 -43 c-178 -36 -523
-120 -573 -140 -21 -8 -21 -5 -3 961 l13 700 -59 83 -60 83 18 27 c9 15 38 53
63 86 l46 59 6 411 c4 226 10 529 14 674 l7 262 -60 0 -60 0 -53 78 c-29 42
-81 119 -117 170 l-63 92 886 0 887 0 361 -247z m-868 -3942 c-11 -5 -83 -32
-160 -61 -467 -175 -1052 -458 -1513 -732 -777 -463 -1392 -1007 -1755 -1551
-189 -283 -440 -776 -582 -1142 -169 -437 -266 -901 -253 -1214 2 -55 2 -99 1
-97 -2 1 -57 268 -124 592 -74 363 -119 601 -116 621 14 86 213 500 347 723
264 440 538 788 915 1166 452 452 912 795 1480 1102 398 215 892 408 1309 512
232 58 524 110 451 81z m-2860 -2422 c-148 -429 -282 -962 -319 -1266 -30
-245 -30 -738 0 -817 5 -12 34 6 125 76 118 90 120 91 138 72 19 -20 841
-1147 856 -1174 12 -20 -64 49 -294 269 -208 198 -470 474 -579 608 -37 45
-71 82 -75 82 -5 1 -54 -24 -108 -55 l-100 -57 -25 24 c-36 33 -91 150 -114
242 -58 230 -44 598 36 955 53 236 155 515 282 772 66 133 192 353 199 347 1
-2 -8 -37 -22 -78z m-2410 -3867 c1 -1 137 7 301 18 164 11 314 20 332 20 l32
0 -182 -272 c-100 -150 -181 -277 -181 -283 0 -6 81 -133 181 -283 116 -174
177 -272 167 -272 -9 0 -153 9 -322 20 -168 12 -312 20 -319 18 -7 -2 -78
-135 -159 -297 -80 -161 -148 -291 -151 -288 -3 3 -70 136 -149 296 -101 204
-149 291 -160 291 -9 0 -156 -9 -327 -20 -171 -12 -312 -19 -315 -16 -2 2 77
126 176 275 100 149 181 273 181 276 0 3 -81 127 -181 276 -99 149 -178 273
-175 276 3 3 150 -4 326 -16 177 -11 325 -19 329 -17 4 3 72 138 151 301 l145
296 148 -298 c82 -164 150 -299 152 -301z m11045 296 c79 -161 145 -294 146
-296 0 -1 142 7 314 18 172 12 322 20 332 18 15 -2 -16 -55 -162 -273 -99
-148 -180 -274 -180 -280 0 -5 81 -131 180 -280 98 -148 178 -271 176 -273 -2
-2 -151 7 -331 18 -179 12 -328 21 -330 19 -1 -2 -67 -136 -145 -296 -79 -161
-146 -293 -150 -293 -3 0 -71 133 -150 295 -112 231 -147 295 -162 295 -10 0
-156 -9 -325 -20 -168 -12 -309 -20 -314 -18 -5 2 74 127 174 278 l184 275
-184 275 c-148 223 -180 276 -165 278 10 2 160 -6 332 -18 172 -11 314 -19
315 -18 2 2 67 135 145 296 79 160 146 292 150 292 3 0 71 -132 150 -292z
m-7819 -1270 c329 -205 598 -376 599 -379 0 -3 -26 -14 -57 -24 -87 -26 -271
-31 -374 -10 -225 45 -432 154 -579 304 -86 88 -131 158 -167 262 -25 72 -43
219 -28 219 5 0 278 -168 606 -372z m4759 335 c-1 -116 -67 -286 -155 -395
-105 -131 -335 -273 -540 -334 -79 -24 -108 -27 -240 -28 -120 -1 -162 3 -212
18 -35 10 -63 21 -63 25 0 7 1191 751 1202 751 5 0 8 -17 8 -37z m-6183 -450
c-245 -291 -432 -591 -508 -814 -41 -121 -51 -281 -24 -374 49 -170 160 -304
348 -418 72 -44 56 -43 -98 10 -398 138 -549 335 -477 621 56 220 219 466 502
756 123 126 315 306 327 306 2 0 -29 -39 -70 -87z m1289 -2336 c3 -221 91
-444 228 -576 34 -33 36 -39 36 -95 0 -250 74 -621 194 -978 29 -87 51 -158
50 -158 -9 0 -177 219 -223 290 -71 111 -137 250 -155 330 -8 36 -20 150 -26
253 l-12 188 -44 72 c-49 80 -97 195 -119 289 -21 91 -19 248 4 341 16 62 55
157 64 157 1 0 3 -51 3 -113z m-2311 -703 c60 -124 111 -227 114 -228 3 -2
121 4 261 13 140 9 257 16 259 15 2 -2 -62 -99 -142 -217 l-146 -214 145 -217
144 -216 -52 0 c-29 0 -145 7 -257 15 -112 8 -207 12 -211 10 -4 -2 -56 -106
-116 -230 -59 -124 -111 -225 -114 -225 -3 0 -57 104 -120 231 l-115 231 -50
-6 c-88 -10 -430 -28 -448 -25 -13 3 12 48 125 216 l141 213 -141 213 c-78
117 -142 215 -142 217 0 5 270 -10 446 -24 l70 -5 114 229 c63 127 117 230
120 230 3 0 55 -101 115 -226z m9274 -4 l112 -230 67 6 c117 10 452 30 452 27
0 -2 -63 -98 -140 -213 -77 -115 -140 -214 -140 -220 0 -6 63 -105 140 -220
l140 -210 -52 0 c-51 0 -260 13 -400 25 l-68 6 -111 -230 c-62 -127 -115 -231
-118 -231 -4 0 -58 104 -121 231 l-115 231 -50 -6 c-88 -10 -430 -28 -448 -25
-14 3 12 47 123 214 77 116 140 213 140 218 0 4 -63 102 -140 217 -77 115
-140 211 -140 212 0 3 311 -15 445 -26 l71 -5 114 229 c63 127 117 230 121
230 3 0 56 -104 118 -230z"/>
<path d="M9222 21250 c2 -319 8 -583 11 -587 4 -3 173 -9 376 -11 l369 -5 -4
39 c-2 22 -8 215 -14 429 -6 215 -13 463 -16 553 l-7 162 -360 0 -360 0 5
-580z"/>
</g>
</svg>
